<?xml version="1.0" standalone="no"?><!DOCTYPE svg PUBLIC "-//W3C//DTD SVG 1.1//EN" "http://www.w3.org/Graphics/SVG/1.1/DTD/svg11.dtd"><svg class="icon" width="200px" height="200.00px" viewBox="0 0 1024 1024" version="1.1" xmlns="http://www.w3.org/2000/svg"><path fill="#333333" d="M511.75 960C264.806 960 63.923 759.054 63.923 512.173c0-181.242 108.054-343.483 275.285-413.344 16.186-6.653 35.058 0.832 41.84 17.209 6.781 16.314-0.896 34.994-17.209 41.776-143.305 59.881-235.941 198.963-235.941 354.359 0 211.694 172.157 383.851 383.851 383.851 155.396 0 294.478-92.636 354.359-235.941 6.781-16.378 25.718-23.991 41.776-17.209 16.314 6.781 23.991 25.462 17.209 41.776C855.233 851.946 692.992 960 511.75 960zM927.589 544.161H511.75c-17.657 0-31.988-14.33-31.988-31.988V96.334c0-17.657 14.33-31.988 31.988-31.988 246.88 0 447.827 200.946 447.827 447.827 0 17.658-14.331 31.988-31.988 31.988z m-383.851-63.975h350.52c-15.418-186.168-164.352-335.102-350.52-350.52v350.52z" /></svg>