<?xml version="1.0" standalone="no"?><!DOCTYPE svg PUBLIC "-//W3C//DTD SVG 1.1//EN" "http://www.w3.org/Graphics/SVG/1.1/DTD/svg11.dtd"><svg class="icon" width="200px" height="200.00px" viewBox="0 0 1024 1024" version="1.1" xmlns="http://www.w3.org/2000/svg"><path fill="#333333" d="M960 428.109V132.357c0-37.623-30.625-68.248-68.257-68.248H589.871c-32.373 0-54.252 6.128-66.502 18.376L80.621 525.235C69.25 536.604 64 549.73 64 565.481c0 14.874 6.12 28.878 16.62 39.38l338.626 338.625c21.002 21.872 57.748 21.872 79.627 0l442.75-442.758c12.247-12.248 18.376-34.997 18.376-68.249v-4.371z m-58.625 33.251l-442.75 442.75-338.626-338.626 442.75-442.75c2.625-2.625 20.992-2.625 27.121-2.625h301.871c7.006 0 12.257 5.251 12.257 12.248v296.63c0.003 18.368-0.876 29.748-2.623 32.373zM736 176.11c-30.626 0-57.756 11.38-79.627 33.25C634.5 231.23 624 257.484 624 288.11a111.653 111.653 0 0 0 112 112c30.626 0 56.869-10.502 78.75-32.373C836.62 345.857 848 318.734 848 288.11a111.657 111.657 0 0 0-112-112z m39.37 152.248c-21.001 21.002-56.868 21.002-78.749 0-21.872-21.872-21.872-58.625 0-79.627 21.88-21.872 57.748-21.872 78.75 0 21.88 21 21.88 57.755 0 79.627z" /></svg>