<?xml version="1.0" standalone="no"?><!DOCTYPE svg PUBLIC "-//W3C//DTD SVG 1.1//EN" "http://www.w3.org/Graphics/SVG/1.1/DTD/svg11.dtd"><svg class="icon" width="200px" height="200.00px" viewBox="0 0 1024 1024" version="1.1" xmlns="http://www.w3.org/2000/svg"><path fill="#333333" d="M512 1024C230.4 1024 0 793.6 0 512S230.4 0 512 0s512 230.4 512 512-230.4 512-512 512z m0-951.296C270.336 72.704 72.704 270.336 72.704 512S270.336 951.296 512 951.296 951.296 753.664 951.296 512 753.664 72.704 512 72.704z"  /><path fill="#333333" d="M695.296 621.568H548.864V512h146.432c20.48 0 36.864-16.384 36.864-36.864s-16.384-36.864-36.864-36.864h-95.232l118.784-118.784c14.336-14.336 14.336-36.864 0-51.2s-36.864-14.336-51.2 0L512 423.936 356.352 269.312c-14.336-14.336-36.864-14.336-51.2 0s-14.336 36.864 0 51.2l118.784 118.784h-95.232c-20.48 0-36.864 16.384-36.864 36.864s16.384 36.864 36.864 36.864h146.432v109.568H328.704c-20.48 0-36.864 16.384-36.864 36.864s16.384 36.864 36.864 36.864h146.432v109.568c0 20.48 16.384 36.864 36.864 36.864s36.864-16.384 36.864-36.864V695.296h146.432c20.48 0 36.864-16.384 36.864-36.864s-17.408-36.864-36.864-36.864z"  /></svg>